<?xml version="1.0" standalone="no"?>
<!DOCTYPE svg PUBLIC "-//W3C//DTD SVG 20010904//EN"
 "http://www.w3.org/TR/2001/REC-SVG-20010904/DTD/svg10.dtd">
<svg version="1.0" xmlns="http://www.w3.org/2000/svg"
 width="886.000000pt" height="200.000000pt" viewBox="0 0 886.000000 200.000000"
 preserveAspectRatio="xMidYMid meet">

<g transform="translate(0.000000,200.000000) scale(0.100000,-0.100000)"
fill="#000000" stroke="none">
<path d="M448 1614 c-15 -8 -32 -23 -38 -34 -6 -12 -10 -201 -10 -534 l0 -516
878 2 877 3 3 489 c1 321 -1 502 -8 528 -8 27 -21 45 -43 58 -31 19 -56 20
-832 20 -687 -1 -804 -3 -827 -16z m1582 -534 l0 -420 -755 0 -755 0 0 420 0
420 755 0 755 0 0 -420z"/>
<path d="M2590 1611 c-6 -13 -10 -236 -10 -656 0 -420 4 -643 10 -656 6 -10
19 -19 30 -19 38 0 41 51 38 698 -2 507 -5 622 -17 635 -18 22 -38 21 -51 -2z"/>
<path d="M3883 1618 c-12 -6 -29 -26 -38 -45 -46 -97 79 -181 156 -104 79 79
-15 199 -118 149z"/>
<path d="M7321 1604 c-25 -20 -31 -34 -31 -64 0 -52 8 -68 41 -85 105 -55 202
63 120 146 -39 38 -87 39 -130 3z"/>
<path d="M3567 1554 c-4 -4 -7 -164 -7 -356 l0 -348 90 0 90 0 -2 353 -3 352
-80 3 c-45 1 -84 0 -88 -4z"/>
<path d="M4716 1545 c-3 -8 -4 -167 -3 -352 l2 -338 88 -3 87 -3 0 103 1 103
32 -35 c17 -19 65 -71 104 -115 l73 -80 57 57 58 58 -95 95 -94 94 24 28 c14
15 27 30 30 33 3 3 31 35 62 72 l58 66 -59 51 -59 51 -93 -110 -94 -110 -3
175 -2 175 -84 0 c-65 0 -85 -3 -90 -15z"/>
<path d="M6317 1547 c-3 -8 -5 -50 -4 -93 1 -73 0 -79 -18 -76 -64 9 -183 3
-216 -11 -95 -42 -140 -112 -147 -227 -5 -92 8 -146 51 -201 62 -82 204 -122
307 -85 l45 16 35 -40 35 -40 67 47 c37 27 67 53 68 59 0 6 -10 24 -22 40 -22
28 -23 36 -28 324 l-5 295 -81 3 c-63 2 -83 0 -87 -11z m-29 -313 c21 -6 22
-11 22 -104 0 -95 -1 -99 -26 -119 -34 -27 -93 -27 -126 -1 -36 28 -51 72 -45
127 9 83 80 122 175 97z"/>
<path d="M8170 1205 l0 -355 85 0 85 0 0 95 c0 52 4 95 9 95 7 0 128 -127 179
-190 l21 -25 58 57 57 57 -93 95 -93 95 85 98 c95 108 94 98 16 164 l-48 40
-87 -106 c-48 -58 -91 -105 -95 -105 -5 0 -9 77 -9 170 l0 170 -85 0 -85 0 0
-355z"/>
<path d="M3134 1539 c-82 -10 -146 -42 -193 -96 -51 -58 -72 -117 -78 -228
-12 -204 86 -334 275 -367 57 -9 87 -9 144 0 70 12 166 55 175 78 5 13 -43
114 -55 114 -4 0 -31 -9 -60 -20 -108 -41 -209 -14 -261 70 -33 55 -30 162 6
218 38 59 78 75 167 69 39 -3 83 -8 97 -12 24 -6 27 -3 47 50 12 31 22 63 22
70 0 15 -115 52 -180 58 -25 2 -72 0 -106 -4z"/>
<path d="M6834 1540 c-64 -9 -139 -34 -181 -60 l-33 -20 0 -305 0 -305 95 0
95 0 0 100 c0 100 0 101 22 89 12 -6 57 -11 101 -11 147 1 237 71 259 203 21
126 -24 229 -123 279 -32 17 -146 42 -174 39 -5 -1 -33 -5 -61 -9z m115 -151
c56 -20 79 -105 46 -169 -19 -36 -70 -53 -120 -39 -51 14 -65 41 -65 127 0 66
2 73 23 82 31 12 78 12 116 -1z"/>
<path d="M4297 1406 c-63 -17 -116 -62 -147 -122 -22 -42 -25 -61 -25 -149 0
-93 2 -104 31 -155 55 -97 167 -150 291 -137 61 6 163 50 163 69 0 7 -8 32
-17 56 -16 39 -21 42 -43 36 -63 -17 -145 -15 -179 4 -90 49 -96 203 -10 248
32 16 136 16 170 0 14 -6 21 4 37 54 l21 61 -46 21 c-58 26 -180 33 -246 14z"/>
<path d="M7737 1402 c-65 -24 -108 -60 -137 -118 -22 -43 -25 -62 -25 -149 1
-114 16 -156 82 -219 42 -41 139 -76 206 -76 56 0 149 27 180 53 l26 22 -21
48 c-18 41 -24 47 -42 42 -12 -4 -51 -9 -89 -12 -59 -5 -72 -2 -102 18 -83 57
-85 203 -2 245 28 15 133 16 175 3 8 -2 20 16 32 51 11 30 19 58 20 62 0 14
-100 40 -175 44 -59 3 -92 -1 -128 -14z"/>
<path d="M5474 1400 c-53 -11 -107 -34 -145 -60 l-29 -21 0 -235 0 -234 90 0
90 0 0 194 c0 192 0 194 23 200 43 11 76 6 104 -18 l28 -24 3 -175 3 -174 39
-38 c46 -44 54 -43 130 24 l55 49 -27 29 c-27 28 -27 29 -30 199 -3 169 -3
171 -31 207 -41 54 -96 78 -186 83 -42 2 -94 -1 -117 -6z"/>
<path d="M3847 1363 c-4 -3 -7 -120 -7 -260 l0 -253 90 0 90 0 0 260 0 260
-83 0 c-46 0 -87 -3 -90 -7z"/>
<path d="M7300 1110 l0 -260 85 0 85 0 0 260 0 260 -85 0 -85 0 0 -260z"/>
<path d="M3285 560 c27 -12 43 -12 25 0 -8 5 -22 9 -30 9 -10 0 -8 -3 5 -9z"/>
<path d="M3778 563 c7 -3 16 -2 19 1 4 3 -2 6 -13 5 -11 0 -14 -3 -6 -6z"/>
<path d="M7338 563 c7 -3 16 -2 19 1 4 3 -2 6 -13 5 -11 0 -14 -3 -6 -6z"/>
<path d="M7370 560 c0 -5 5 -10 11 -10 5 0 7 5 4 10 -3 6 -8 10 -11 10 -2 0
-4 -4 -4 -10z"/>
<path d="M2880 441 c0 -66 -3 -128 -7 -138 -6 -16 -5 -16 10 -4 14 11 17 33
17 137 0 76 -4 124 -10 124 -6 0 -10 -46 -10 -119z"/>
<path d="M2980 481 c0 -70 3 -83 24 -108 19 -22 32 -28 66 -28 64 0 80 26 80
132 0 54 -4 82 -10 78 -6 -4 -8 -33 -4 -75 9 -90 -8 -120 -65 -120 -54 0 -64
17 -69 116 -3 46 -8 84 -13 84 -5 0 -9 -36 -9 -79z"/>
<path d="M3227 553 c-4 -3 -7 -21 -7 -39 0 -28 6 -37 40 -56 49 -29 64 -58 44
-87 -8 -12 -10 -21 -5 -21 18 0 41 44 35 68 -4 12 -21 31 -38 42 -54 33 -72
58 -58 81 11 18 3 27 -11 12z"/>
<path d="M3373 553 c9 -2 23 -2 30 0 6 3 -1 5 -18 5 -16 0 -22 -2 -12 -5z"/>
<path d="M3438 455 c2 -58 7 -105 13 -105 5 0 9 46 9 105 0 77 -3 105 -12 105
-10 0 -12 -26 -10 -105z"/>
<path d="M3503 553 c9 -2 23 -2 30 0 6 3 -1 5 -18 5 -16 0 -22 -2 -12 -5z"/>
<path d="M3689 531 c-24 -24 -29 -38 -29 -76 0 -38 5 -52 29 -76 16 -16 35
-29 43 -29 7 0 1 10 -14 21 -48 36 -50 118 -3 165 13 13 19 24 14 24 -6 0 -24
-13 -40 -29z"/>
<path d="M3810 556 c0 -2 7 -6 15 -10 8 -3 15 -1 15 4 0 6 -7 10 -15 10 -8 0
-15 -2 -15 -4z"/>
<path d="M3902 458 c2 -70 7 -103 16 -106 9 -3 12 22 12 102 0 89 -3 106 -15
106 -13 0 -15 -16 -13 -102z"/>
<path d="M4045 537 c-11 -41 -1 -180 13 -185 9 -3 12 22 12 102 0 63 -4 106
-10 106 -5 0 -12 -10 -15 -23z"/>
<path d="M4177 549 c-21 -13 -47 -61 -47 -89 0 -35 29 -86 56 -99 36 -16 42
-14 15 5 -54 38 -58 128 -9 174 23 21 15 26 -15 9z"/>
<path d="M4280 556 c0 -2 7 -6 15 -10 8 -3 15 -1 15 4 0 6 -7 10 -15 10 -8 0
-15 -2 -15 -4z"/>
<path d="M4380 455 c0 -63 4 -105 10 -105 6 0 10 42 10 105 0 63 -4 105 -10
105 -6 0 -10 -42 -10 -105z"/>
<path d="M4461 514 c-23 -26 -41 -52 -41 -58 1 -14 88 -106 101 -106 18 0 8
16 -36 60 -25 24 -45 49 -45 54 0 6 19 30 42 53 23 24 37 43 31 43 -6 0 -30
-21 -52 -46z"/>
<path d="M4716 551 c-8 -12 -76 -189 -76 -196 0 -3 4 -5 9 -5 9 0 51 103 51
125 0 8 5 26 11 42 l11 28 15 -40 c8 -22 19 -49 23 -60 5 -11 16 -37 24 -57 8
-21 20 -38 25 -38 9 0 -10 59 -58 183 -11 27 -25 35 -35 18z"/>
<path d="M4869 470 c-1 -49 -2 -95 -3 -102 -1 -6 4 -13 10 -15 9 -3 11 21 7
84 l-4 88 41 -45 c22 -25 55 -64 73 -87 18 -23 35 -43 40 -43 4 0 7 24 7 53 0
28 3 76 6 105 5 35 3 52 -4 52 -7 0 -12 -32 -14 -86 l-3 -86 -70 86 c-38 47
-73 86 -77 86 -5 0 -9 -40 -9 -90z"/>
<path d="M5120 455 c0 -82 3 -105 14 -105 10 0 13 24 14 105 1 86 -2 105 -13
105 -12 0 -15 -20 -15 -105z"/>
<path d="M5251 531 c23 -23 29 -38 29 -71 0 -53 -14 -78 -53 -95 -29 -13 -29
-14 -8 -15 31 0 91 61 91 93 0 42 -20 82 -49 100 -41 24 -44 21 -10 -12z"/>
<path d="M5454 547 c-10 -28 1 -190 14 -195 9 -3 12 22 12 102 0 66 -4 106
-10 106 -6 0 -13 -6 -16 -13z"/>
<path d="M5528 544 c26 -18 29 -56 6 -78 -12 -13 -12 -16 -2 -16 22 0 38 22
38 51 0 31 -23 59 -48 59 -13 0 -12 -3 6 -16z"/>
<path d="M5630 455 c0 -63 4 -105 10 -105 6 0 10 42 10 105 0 63 -4 105 -10
105 -6 0 -10 -42 -10 -105z"/>
<path d="M5749 531 c-24 -24 -29 -38 -29 -76 0 -38 5 -52 29 -76 16 -16 35
-29 41 -29 6 0 -2 11 -17 24 -25 21 -28 31 -28 81 0 50 3 60 28 81 15 13 23
24 17 24 -6 0 -25 -13 -41 -29z"/>
<path d="M5878 553 c7 -3 16 -2 19 1 4 3 -2 6 -13 5 -11 0 -14 -3 -6 -6z"/>
<path d="M5960 455 c0 -63 4 -105 10 -105 6 0 10 42 10 105 0 63 -4 105 -10
105 -6 0 -10 -42 -10 -105z"/>
<path d="M6041 509 c-43 -49 -43 -50 -25 -72 48 -58 79 -87 93 -87 10 0 3 13
-20 38 -80 86 -78 78 -31 118 40 34 52 54 34 54 -5 0 -28 -23 -51 -51z"/>
<path d="M6233 553 c9 -2 23 -2 30 0 6 3 -1 5 -18 5 -16 0 -22 -2 -12 -5z"/>
<path d="M6300 455 c0 -59 4 -105 9 -105 6 0 11 47 13 105 2 79 0 105 -9 105
-10 0 -13 -28 -13 -105z"/>
<path d="M6368 553 c6 -2 18 -2 25 0 6 3 1 5 -13 5 -14 0 -19 -2 -12 -5z"/>
<path d="M6450 455 c0 -63 4 -105 10 -105 6 0 10 10 11 23 4 120 0 187 -11
187 -6 0 -10 -42 -10 -105z"/>
<path d="M6600 455 c0 -63 4 -105 10 -105 6 0 10 42 10 105 0 63 -4 105 -10
105 -6 0 -10 -42 -10 -105z"/>
<path d="M6700 455 c0 -79 3 -105 13 -105 10 0 13 26 12 105 0 77 -3 105 -12
105 -10 0 -13 -28 -13 -105z"/>
<path d="M6763 553 c9 -2 23 -2 30 0 6 3 -1 5 -18 5 -16 0 -22 -2 -12 -5z"/>
<path d="M6946 552 c-4 -7 -2 -107 3 -189 1 -7 6 -13 11 -13 6 0 10 42 10 105
0 93 -7 123 -24 97z"/>
<path d="M7018 548 c17 -17 15 -65 -4 -76 -13 -7 -12 -11 10 -26 33 -21 34
-59 4 -80 -18 -13 -19 -16 -6 -16 45 0 63 65 28 98 -18 17 -19 20 -5 32 8 7
15 21 15 31 0 20 -25 49 -43 49 -8 0 -7 -4 1 -12z"/>
<path d="M7137 553 c-4 -3 -7 -51 -7 -105 0 -73 3 -98 13 -98 10 0 13 26 14
105 0 98 -3 115 -20 98z"/>
<path d="M7198 553 c6 -2 18 -2 25 0 6 3 1 5 -13 5 -14 0 -19 -2 -12 -5z"/>
<path d="M7292 548 c-26 -26 -13 -57 38 -94 54 -38 66 -74 33 -93 -13 -7 -14
-10 -4 -11 18 0 40 30 41 56 0 21 -25 48 -74 78 -23 14 -27 23 -24 47 3 16 4
29 3 29 0 0 -6 -5 -13 -12z"/>
<path d="M7433 553 c9 -2 25 -2 35 0 9 3 1 5 -18 5 -19 0 -27 -2 -17 -5z"/>
<path d="M7500 454 c0 -80 3 -105 13 -102 8 3 13 36 15 106 2 86 0 102 -13
102 -12 0 -15 -17 -15 -106z"/>
<path d="M7568 553 c6 -2 18 -2 25 0 6 3 1 5 -13 5 -14 0 -19 -2 -12 -5z"/>
<path d="M6765 460 c3 -5 10 -10 16 -10 5 0 9 5 9 10 0 6 -7 10 -16 10 -8 0
-12 -4 -9 -10z"/>
<path d="M7195 460 c3 -5 10 -10 16 -10 5 0 9 5 9 10 0 6 -7 10 -16 10 -8 0
-12 -4 -9 -10z"/>
<path d="M175 440 c-10 -32 4 -122 22 -142 15 -17 64 -18 1079 -18 935 0 1064
2 1078 15 17 17 29 85 24 131 l-3 29 -1097 3 c-1090 2 -1097 2 -1103 -18z
m2113 -72 c-3 -22 -8 -23 -92 -26 -91 -3 -113 4 -103 32 5 13 24 16 102 16 94
0 96 -1 93 -22z"/>
<path d="M3210 360 c0 -8 60 -23 67 -17 1 2 -13 8 -32 14 -19 6 -35 8 -35 3z"/>
<path d="M3810 360 c-12 -8 -11 -10 8 -10 12 0 22 5 22 10 0 13 -11 13 -30 0z"/>
<path d="M4290 360 c-13 -8 -13 -10 2 -10 9 0 20 5 23 10 8 13 -5 13 -25 0z"/>
<path d="M5855 353 l-40 -13 40 6 c39 6 52 11 44 17 -2 2 -22 -2 -44 -10z"/>
<path d="M7280 360 c0 -6 7 -10 15 -10 8 0 15 2 15 4 0 2 -7 6 -15 10 -8 3
-15 1 -15 -4z"/>
<path d="M3953 353 c9 -2 23 -2 30 0 6 3 -1 5 -18 5 -16 0 -22 -2 -12 -5z"/>
<path d="M6753 353 c9 -2 25 -2 35 0 9 3 1 5 -18 5 -19 0 -27 -2 -17 -5z"/>
<path d="M7193 353 c9 -2 23 -2 30 0 6 3 -1 5 -18 5 -16 0 -22 -2 -12 -5z"/>
<path d="M3758 343 c6 -2 18 -2 25 0 6 3 1 5 -13 5 -14 0 -19 -2 -12 -5z"/>
<path d="M4238 343 c6 -2 18 -2 25 0 6 3 1 5 -13 5 -14 0 -19 -2 -12 -5z"/>
</g>
</svg>
